<svg id="svg" xmlns="http://www.w3.org/2000/svg" xmlns:xlink="http://www.w3.org/1999/xlink" width="400" height="400" viewBox="0, 0, 400,400"><g id="svgg"><path id="path0" d="M186.659 39.784 L 184.375 42.067 184.375 55.409 L 184.375 68.750 142.312 68.750 C 103.242 68.750,99.828 68.858,94.324 70.266 C 73.426 75.610,56.862 92.168,51.521 113.052 C 49.459 121.114,49.245 171.875,51.220 184.672 C 62.507 257.843,122.845 309.375,197.231 309.375 L 211.058 309.375 213.341 307.091 L 215.625 304.808 215.625 293.750 L 215.625 282.692 213.341 280.409 C 211.210 278.278,210.649 278.124,204.943 278.107 C 135.979 277.907,86.763 234.449,82.012 169.558 C 80.176 144.469,81.310 122.444,84.793 115.571 C 88.883 107.499,96.545 102.168,106.027 100.797 C 113.156 99.767,286.844 99.767,293.973 100.797 C 306.883 102.664,316.086 111.867,317.953 124.777 C 319.737 137.115,318.558 174.887,316.008 187.096 C 313.733 197.989,315.194 200.138,327.501 203.997 C 347.396 210.234,350.000 203.854,350.000 148.875 C 350.000 106.887,346.766 96.837,328.373 81.666 C 313.669 69.537,309.362 68.750,257.688 68.750 L 215.625 68.750 215.625 55.409 L 215.625 42.067 213.341 39.784 L 211.058 37.500 200.000 37.500 L 188.942 37.500 186.659 39.784 M140.011 151.668 C 124.062 157.797,119.683 180.546,132.068 192.932 C 144.553 205.416,167.329 200.913,173.370 184.767 C 181.390 163.332,161.365 143.463,140.011 151.668 M240.011 151.668 C 219.913 159.391,220.062 190.823,240.233 198.370 C 257.715 204.911,275.000 193.291,275.000 175.000 C 275.000 156.679,257.441 144.970,240.011 151.668 M310.374 238.477 C 309.959 239.014,306.705 246.774,303.142 255.721 C 295.146 275.802,291.789 280.751,282.031 286.841 C 280.957 287.512,272.871 290.953,264.063 294.489 C 240.156 304.085,240.156 304.084,262.281 312.837 C 290.862 324.145,292.740 326.060,304.657 356.055 C 312.774 376.484,313.220 376.442,321.880 354.453 C 333.013 326.185,334.469 324.721,362.832 313.281 C 385.542 304.122,385.559 303.812,363.794 295.264 C 335.132 284.008,333.378 282.306,322.593 255.302 C 315.632 237.872,315.429 237.500,312.891 237.500 C 311.922 237.500,310.789 237.939,310.374 238.477 " stroke="none" fill="#f8f9fa" fill-rule="evenodd"></path></g></svg>
